<svg
  viewBox="0 0 400 400"
  xmlns="http://www.w3.org/2000/svg"
  className="w-56 h-56"
>
  <circle cx="200" cy="200" r="200" fill="#999f53" />
  <g transform="translate(20, -25) scale(6)">
    <path fill="white"
      d="M5.18 43.21Q2.51 43.21 1.26 42.24Q0 41.26 0 39.87Q0 38.79 0.76 38.32Q1.51 37.84 2.27 37.84Q2.69 37.84 3.09 38.11Q3.49 38.38 3.49 38.96Q3.49 39.43 3.09 39.81Q2.69 40.19 2.15 40.19Q1.83 40.19 1.53 40.14Q1.22 40.09 0.98 39.92L0.98 40.06Q0.98 41.14 2.01 41.83Q3.05 42.53 4.86 42.53Q6.47 42.53 7.93 41.97Q9.40 41.41 11.15 39.83Q12.89 38.26 15.33 35.25Q17.77 32.25 21.34 27.34Q25.24 21.88 29.17 18.38Q33.11 14.89 37.23 12.16Q37.48 12.01 37.71 11.88Q37.94 11.74 38.18 11.62Q36.69 10.62 34.46 10.13Q32.23 9.64 29.47 9.64Q25.22 9.64 21.41 11.01Q17.60 12.38 14.70 14.55Q11.79 16.72 10.17 19.23Q8.54 21.73 8.62 24.02Q8.67 25.34 9.29 26.12Q9.91 26.90 10.78 27.25Q11.65 27.59 12.43 27.59Q14.18 27.59 15.97 26.50Q17.75 25.42 19.37 23.72Q21.00 22.02 22.29 20.10Q23.58 18.19 24.39 16.50Q25.20 14.82 25.29 13.79Q25.39 12.96 25.66 12.96Q25.90 12.96 25.90 13.75Q25.98 15.89 25.07 18.40Q24.17 20.90 22.40 23.14Q20.63 25.39 18.09 26.81Q15.55 28.22 12.38 28.22Q10.79 28.22 9.31 27.11Q7.84 26.00 7.79 24.15Q7.71 21.73 8.98 19.47Q10.25 17.21 12.50 15.31Q14.75 13.40 17.61 11.98Q20.48 10.55 23.63 9.75Q26.78 8.96 29.83 8.96Q35.45 8.96 38.94 11.21Q40.82 10.25 42.19 9.81Q43.55 9.38 44.24 9.38Q44.70 9.38 44.73 9.62Q44.73 9.91 44.04 10.01Q42.16 10.40 39.82 11.84Q42.65 14.14 42.80 17.72Q42.90 19.78 41.67 21.79Q40.45 23.80 38.17 25.43Q35.89 27.05 32.79 27.98Q33.50 28.71 33.52 29.88Q33.59 30.98 33.28 32.09Q32.96 33.20 31.88 34.68Q30.81 36.16 28.61 38.35Q27.78 39.06 27.49 39.66Q27.20 40.26 27.22 40.75Q27.22 41.48 27.76 42.00Q28.30 42.53 29.79 42.53Q31.74 42.53 33.87 41.09Q36.01 39.65 37.87 37.13Q39.72 34.62 40.80 31.45Q40.99 30.71 41.14 30.71Q41.58 30.71 41.58 31.42Q41.60 33.54 40.43 35.63Q39.26 37.72 37.40 39.43Q35.55 41.14 33.48 42.18Q31.42 43.21 29.66 43.21Q27.69 43.21 26.61 42.37Q25.54 41.53 25.49 40.21Q25.44 38.40 26.07 36.96Q26.71 35.52 27.71 34.33Q28.71 33.13 29.71 32.10Q31.01 31.03 31.37 30.32Q31.74 29.61 31.71 28.93Q31.71 28.59 31.57 28.30Q30.96 28.44 30.40 28.50Q29.83 28.56 29.35 28.56Q28.30 28.56 27.76 28.28Q27.22 28.00 27.20 27.64Q27.17 27.34 27.65 27.06Q28.13 26.78 29.05 26.78Q29.86 26.78 30.63 26.92Q31.40 27.05 32.01 27.39Q33.69 26.68 35.25 25.34Q36.82 24.00 38.05 22.31Q39.28 20.63 39.98 18.90Q40.67 17.16 40.63 15.67Q40.55 13.72 39.09 12.33Q36.18 14.31 32.98 17.74Q29.79 21.17 26.68 25.68Q21.95 32.32 18.05 36.16Q14.16 39.99 10.99 41.60Q7.81 43.21 5.18 43.21M29.22 28.00Q30.08 28.00 31.01 27.73Q30.32 27.34 29.05 27.34Q28.08 27.34 28.08 27.59Q28.08 27.69 28.37 27.84Q28.66 28.00 29.22 28.00Z" />
  </g>
  <g transform="translate(75, 95) scale(6)">
    <path fill="white"
      d="M5.18 43.29Q2.59 43.29 1.29 42.25Q0 41.21 0 39.72Q0 38.62 0.77 38.17Q1.54 37.72 2.29 37.72Q2.71 37.72 3.11 37.96Q3.52 38.21 3.52 38.82Q3.52 39.28 3.11 39.65Q2.71 40.01 2.15 40.01Q1.83 40.01 1.53 39.98Q1.22 39.94 0.98 39.77L0.98 39.94Q0.98 41.11 1.99 41.87Q3.00 42.63 5.37 42.63Q7.01 42.63 8.72 41.92Q10.42 41.21 12.28 39.94Q13.18 39.28 14.07 38.57Q14.97 37.87 15.92 37.08Q12.38 35.77 10.36 33.41Q8.35 31.05 8.23 28.47Q8.15 26.76 8.96 25.28Q9.77 23.80 11.40 22.88Q13.04 21.95 15.41 21.95Q18.70 21.95 21.22 23.89Q23.73 25.83 25.07 28.69L25.73 28.03Q30.25 23.51 33.57 20.46Q36.89 17.41 39.28 15.47Q41.67 13.53 43.42 12.38Q45.17 11.23 46.51 10.52Q48.32 9.57 49.49 9.23Q50.66 8.89 51.27 8.89Q51.71 8.89 51.71 9.11Q51.71 9.20 51.22 9.40Q50.85 9.52 50.17 10.23Q49.49 10.94 48.17 12.63Q46.85 14.33 44.57 17.37Q42.29 20.41 38.76 25.13Q35.23 29.86 30.08 36.65Q34.52 35.33 37.87 32.47Q41.21 29.61 42.63 25.85Q42.92 25.12 43.02 25.12Q43.09 25.12 43.25 25.33Q43.41 25.54 43.41 25.83Q43.26 27.93 42.21 29.53Q41.16 31.13 39.70 32.57Q37.74 34.47 35.03 35.75Q32.32 37.04 29.30 37.67L25.12 43.19Q24.37 43.14 23.57 43.09Q22.78 43.04 22.29 43.04Q21.88 43.04 21.55 43.09Q21.22 43.14 20.87 43.19Q21.80 42.02 22.71 40.91Q23.61 39.79 24.49 38.72Q24.68 38.43 24.76 38.26Q24.37 38.28 23.99 38.29Q23.61 38.31 23.22 38.31Q21.44 38.31 19.81 38.06Q18.19 37.82 16.77 37.38Q15.04 38.84 13.73 39.82Q12.43 40.80 11.47 41.38Q9.91 42.36 8.35 42.82Q6.79 43.29 5.18 43.29M26.12 36.72Q33.01 28.27 37.71 22.78Q42.41 17.29 45.26 14.17Q48.12 11.06 49.46 9.81Q48.68 10.13 47.84 10.50Q47.00 10.86 45.83 11.57Q43.85 12.77 41.25 14.88Q38.65 16.99 35.14 20.19Q31.64 23.39 26.98 27.93L25.42 29.44Q25.90 30.66 26.16 31.96Q26.42 33.25 26.42 34.55Q26.42 35.64 26.12 36.72M16.50 36.60Q18.19 35.16 20.13 33.36Q22.07 31.57 24.51 29.20Q23.27 26.29 20.86 24.49Q18.46 22.68 15.45 22.68Q13.89 22.68 12.59 23.49Q11.28 24.29 10.51 25.60Q9.74 26.90 9.74 28.42Q9.74 30.96 11.43 33.18Q13.11 35.40 16.50 36.60M23.36 37.62Q24.24 37.62 25.07 37.55Q25.37 36.79 25.50 36.01Q25.63 35.23 25.63 34.69Q25.63 32.28 24.83 30.00Q22.61 32.15 20.74 33.85Q18.87 35.55 17.36 36.87Q20.02 37.62 23.36 37.62Z" />
  </g>
</svg>